<mxfile host="Electron" modified="2023-06-18T20:44:19.560Z" agent="Mozilla/5.0 (Windows NT 10.0; Win64; x64) AppleWebKit/537.36 (KHTML, like Gecko) draw.io/21.2.8 Chrome/112.0.5615.165 Electron/24.2.0 Safari/537.36" etag="A5mUfGksiLNVywlhlItD" version="21.2.8" type="device">
  <diagram name="Page-1" id="JMMwjYkYrYm7CMSogaQW">
    <mxGraphModel dx="1850" dy="1421" grid="1" gridSize="14" guides="1" tooltips="1" connect="1" arrows="1" fold="1" page="0" pageScale="1" pageWidth="850" pageHeight="1100" background="#FFFFFF" math="0" shadow="1">
      <root>
        <mxCell id="0" />
        <mxCell id="1" parent="0" />
        <mxCell id="rJEz44dccmCfuX08f4CU-1" value="movie" style="rounded=0;whiteSpace=wrap;html=1;" parent="1" vertex="1">
          <mxGeometry x="160" y="190" width="120" height="60" as="geometry" />
        </mxCell>
        <mxCell id="rJEz44dccmCfuX08f4CU-2" value="movie_id" style="ellipse;whiteSpace=wrap;html=1;align=center;fontStyle=4;" parent="1" vertex="1">
          <mxGeometry x="95" y="84" width="60" height="40" as="geometry" />
        </mxCell>
        <mxCell id="rJEz44dccmCfuX08f4CU-3" value="name_of_the_movie" style="ellipse;whiteSpace=wrap;html=1;align=center;" parent="1" vertex="1">
          <mxGeometry x="155" y="100" width="130" height="40" as="geometry" />
        </mxCell>
        <mxCell id="rJEz44dccmCfuX08f4CU-4" value="premiere" style="ellipse;whiteSpace=wrap;html=1;align=center;" parent="1" vertex="1">
          <mxGeometry x="28" y="120" width="70" height="40" as="geometry" />
        </mxCell>
        <mxCell id="rJEz44dccmCfuX08f4CU-5" value="genre" style="ellipse;whiteSpace=wrap;html=1;align=center;" parent="1" vertex="1">
          <mxGeometry x="8" y="165" width="70" height="40" as="geometry" />
        </mxCell>
        <mxCell id="rJEz44dccmCfuX08f4CU-6" value="country_of_origin" style="ellipse;whiteSpace=wrap;html=1;align=center;" parent="1" vertex="1">
          <mxGeometry x="20" y="290" width="100" height="40" as="geometry" />
        </mxCell>
        <mxCell id="rJEz44dccmCfuX08f4CU-15" value="name_of_production" style="ellipse;whiteSpace=wrap;html=1;align=center;" parent="1" vertex="1">
          <mxGeometry x="98" y="320" width="126" height="44" as="geometry" />
        </mxCell>
        <mxCell id="rJEz44dccmCfuX08f4CU-202" style="edgeStyle=orthogonalEdgeStyle;rounded=0;orthogonalLoop=1;jettySize=auto;html=1;exitX=0.5;exitY=1;exitDx=0;exitDy=0;entryX=1;entryY=0.5;entryDx=0;entryDy=0;" parent="1" source="rJEz44dccmCfuX08f4CU-17" target="rJEz44dccmCfuX08f4CU-196" edge="1">
          <mxGeometry relative="1" as="geometry" />
        </mxCell>
        <mxCell id="rJEz44dccmCfuX08f4CU-17" value="actor" style="rounded=0;whiteSpace=wrap;html=1;" parent="1" vertex="1">
          <mxGeometry x="520" y="180" width="120" height="60" as="geometry" />
        </mxCell>
        <mxCell id="rJEz44dccmCfuX08f4CU-19" value="actor_id" style="ellipse;whiteSpace=wrap;html=1;align=center;fontStyle=4;" parent="1" vertex="1">
          <mxGeometry x="440" y="100" width="60" height="40" as="geometry" />
        </mxCell>
        <mxCell id="rJEz44dccmCfuX08f4CU-21" value="first_name" style="ellipse;whiteSpace=wrap;html=1;align=center;" parent="1" vertex="1">
          <mxGeometry x="545" y="90" width="70" height="40" as="geometry" />
        </mxCell>
        <mxCell id="rJEz44dccmCfuX08f4CU-23" value="last_name" style="ellipse;whiteSpace=wrap;html=1;align=center;" parent="1" vertex="1">
          <mxGeometry x="630" y="110" width="70" height="40" as="geometry" />
        </mxCell>
        <mxCell id="rJEz44dccmCfuX08f4CU-30" value="nickname" style="ellipse;whiteSpace=wrap;html=1;align=center;" parent="1" vertex="1">
          <mxGeometry x="680" y="170" width="70" height="40" as="geometry" />
        </mxCell>
        <mxCell id="rJEz44dccmCfuX08f4CU-32" value="date_of_birth" style="ellipse;whiteSpace=wrap;html=1;align=center;" parent="1" vertex="1">
          <mxGeometry x="680" y="230" width="80" height="40" as="geometry" />
        </mxCell>
        <mxCell id="rJEz44dccmCfuX08f4CU-34" value="code_for_the_agent" style="ellipse;whiteSpace=wrap;html=1;align=center;" parent="1" vertex="1">
          <mxGeometry x="680" y="280" width="120" height="40" as="geometry" />
        </mxCell>
        <mxCell id="rJEz44dccmCfuX08f4CU-36" value="actor_movie" style="shape=associativeEntity;whiteSpace=wrap;html=1;align=center;" parent="1" vertex="1">
          <mxGeometry x="320" y="280" width="140" height="60" as="geometry" />
        </mxCell>
        <mxCell id="rJEz44dccmCfuX08f4CU-40" value="&lt;span style=&quot;border-bottom: 1px dotted&quot;&gt;actor_id&lt;/span&gt;" style="ellipse;whiteSpace=wrap;html=1;align=center;" parent="1" vertex="1">
          <mxGeometry x="395" y="220" width="65" height="40" as="geometry" />
        </mxCell>
        <mxCell id="rJEz44dccmCfuX08f4CU-41" value="&lt;span style=&quot;border-bottom: 1px dotted&quot;&gt;movie_id&lt;/span&gt;" style="ellipse;whiteSpace=wrap;html=1;align=center;" parent="1" vertex="1">
          <mxGeometry x="320" y="220" width="65" height="40" as="geometry" />
        </mxCell>
        <mxCell id="rJEz44dccmCfuX08f4CU-44" value="payment" style="ellipse;whiteSpace=wrap;html=1;align=center;" parent="1" vertex="1">
          <mxGeometry x="360" y="180" width="60" height="30" as="geometry" />
        </mxCell>
        <mxCell id="rJEz44dccmCfuX08f4CU-46" value="oscar_winner" style="shape=associativeEntity;whiteSpace=wrap;html=1;align=center;" parent="1" vertex="1">
          <mxGeometry x="320" y="480" width="140" height="60" as="geometry" />
        </mxCell>
        <mxCell id="rJEz44dccmCfuX08f4CU-48" value="&lt;span style=&quot;border-bottom: 1px dotted&quot;&gt;actor_id&lt;/span&gt;" style="ellipse;whiteSpace=wrap;html=1;align=center;" parent="1" vertex="1">
          <mxGeometry x="470" y="410" width="65" height="40" as="geometry" />
        </mxCell>
        <mxCell id="rJEz44dccmCfuX08f4CU-50" value="&lt;span style=&quot;border-bottom: 1px dotted&quot;&gt;movie_id&lt;/span&gt;" style="ellipse;whiteSpace=wrap;html=1;align=center;" parent="1" vertex="1">
          <mxGeometry x="260" y="410" width="65" height="40" as="geometry" />
        </mxCell>
        <mxCell id="rJEz44dccmCfuX08f4CU-52" value="year" style="ellipse;whiteSpace=wrap;html=1;align=center;" parent="1" vertex="1">
          <mxGeometry x="400" y="390" width="60" height="30" as="geometry" />
        </mxCell>
        <mxCell id="rJEz44dccmCfuX08f4CU-53" value="M" style="text;strokeColor=none;fillColor=none;spacingLeft=4;spacingRight=4;overflow=hidden;rotatable=0;points=[[0,0.5],[1,0.5]];portConstraint=eastwest;fontSize=12;whiteSpace=wrap;html=1;" parent="1" vertex="1">
          <mxGeometry x="280" y="220" width="20" height="20" as="geometry" />
        </mxCell>
        <mxCell id="rJEz44dccmCfuX08f4CU-54" value="M" style="text;strokeColor=none;fillColor=none;spacingLeft=4;spacingRight=4;overflow=hidden;rotatable=0;points=[[0,0.5],[1,0.5]];portConstraint=eastwest;fontSize=12;whiteSpace=wrap;html=1;" parent="1" vertex="1">
          <mxGeometry x="500" y="210" width="20" height="20" as="geometry" />
        </mxCell>
        <mxCell id="rJEz44dccmCfuX08f4CU-55" value="role" style="ellipse;whiteSpace=wrap;html=1;align=center;" parent="1" vertex="1">
          <mxGeometry x="325" y="390" width="60" height="30" as="geometry" />
        </mxCell>
        <mxCell id="rJEz44dccmCfuX08f4CU-59" value="M" style="text;html=1;align=center;verticalAlign=middle;resizable=0;points=[];autosize=1;strokeColor=none;fillColor=none;" parent="1" vertex="1">
          <mxGeometry x="214" y="251" width="42" height="28" as="geometry" />
        </mxCell>
        <mxCell id="rJEz44dccmCfuX08f4CU-60" value="M" style="text;html=1;align=center;verticalAlign=middle;resizable=0;points=[];autosize=1;strokeColor=none;fillColor=none;" parent="1" vertex="1">
          <mxGeometry x="514" y="241" width="42" height="28" as="geometry" />
        </mxCell>
        <mxCell id="rJEz44dccmCfuX08f4CU-63" value="film" style="rounded=0;whiteSpace=wrap;html=1;" parent="1" vertex="1">
          <mxGeometry x="250" y="-80" width="120" height="60" as="geometry" />
        </mxCell>
        <mxCell id="rJEz44dccmCfuX08f4CU-64" value="tv_series" style="rounded=0;whiteSpace=wrap;html=1;" parent="1" vertex="1">
          <mxGeometry x="440" y="-80" width="120" height="60" as="geometry" />
        </mxCell>
        <mxCell id="rJEz44dccmCfuX08f4CU-68" value="premiere_city" style="ellipse;whiteSpace=wrap;html=1;align=center;" parent="1" vertex="1">
          <mxGeometry x="165" y="-180" width="80" height="40" as="geometry" />
        </mxCell>
        <mxCell id="rJEz44dccmCfuX08f4CU-69" value="first_week_revenue" style="ellipse;whiteSpace=wrap;html=1;align=center;" parent="1" vertex="1">
          <mxGeometry x="94" y="-140" width="120" height="40" as="geometry" />
        </mxCell>
        <mxCell id="rJEz44dccmCfuX08f4CU-73" value="premiere_format" style="ellipse;whiteSpace=wrap;html=1;align=center;" parent="1" vertex="1">
          <mxGeometry x="225" y="-210" width="100" height="40" as="geometry" />
        </mxCell>
        <mxCell id="rJEz44dccmCfuX08f4CU-82" value="1" style="text;html=1;align=center;verticalAlign=middle;resizable=0;points=[];autosize=1;strokeColor=none;fillColor=none;" parent="1" vertex="1">
          <mxGeometry x="270" y="160" width="30" height="30" as="geometry" />
        </mxCell>
        <mxCell id="rJEz44dccmCfuX08f4CU-83" value="1" style="text;html=1;align=center;verticalAlign=middle;resizable=0;points=[];autosize=1;strokeColor=none;fillColor=none;" parent="1" vertex="1">
          <mxGeometry x="310" y="-20" width="30" height="30" as="geometry" />
        </mxCell>
        <mxCell id="rJEz44dccmCfuX08f4CU-84" value="1" style="text;html=1;align=center;verticalAlign=middle;resizable=0;points=[];autosize=1;strokeColor=none;fillColor=none;" parent="1" vertex="1">
          <mxGeometry x="470" y="-20" width="30" height="30" as="geometry" />
        </mxCell>
        <mxCell id="rJEz44dccmCfuX08f4CU-86" value="IS" style="shape=rhombus;perimeter=rhombusPerimeter;whiteSpace=wrap;html=1;align=center;" parent="1" vertex="1">
          <mxGeometry x="325" y="50" width="90" height="40" as="geometry" />
        </mxCell>
        <mxCell id="rJEz44dccmCfuX08f4CU-90" value="TV_channel" style="ellipse;whiteSpace=wrap;html=1;align=center;" parent="1" vertex="1">
          <mxGeometry x="380" y="-160" width="80" height="40" as="geometry" />
        </mxCell>
        <mxCell id="rJEz44dccmCfuX08f4CU-91" value="number_of_episodes" style="ellipse;whiteSpace=wrap;html=1;align=center;" parent="1" vertex="1">
          <mxGeometry x="460" y="-170" width="120" height="40" as="geometry" />
        </mxCell>
        <mxCell id="rJEz44dccmCfuX08f4CU-97" value="number_of&lt;br&gt;_expected_seasons" style="ellipse;whiteSpace=wrap;html=1;align=center;" parent="1" vertex="1">
          <mxGeometry x="570" y="-140" width="120" height="55" as="geometry" />
        </mxCell>
        <mxCell id="rJEz44dccmCfuX08f4CU-99" value="director" style="rounded=0;whiteSpace=wrap;html=1;" parent="1" vertex="1">
          <mxGeometry x="525" y="-400" width="120" height="60" as="geometry" />
        </mxCell>
        <mxCell id="rJEz44dccmCfuX08f4CU-104" value="first_name" style="ellipse;whiteSpace=wrap;html=1;align=center;" parent="1" vertex="1">
          <mxGeometry x="660" y="-270" width="70" height="40" as="geometry" />
        </mxCell>
        <mxCell id="rJEz44dccmCfuX08f4CU-105" value="last_name" style="ellipse;whiteSpace=wrap;html=1;align=center;" parent="1" vertex="1">
          <mxGeometry x="575" y="-260" width="70" height="40" as="geometry" />
        </mxCell>
        <mxCell id="rJEz44dccmCfuX08f4CU-107" value="expertise" style="ellipse;whiteSpace=wrap;html=1;align=center;" parent="1" vertex="1">
          <mxGeometry x="745" y="-430" width="70" height="50" as="geometry" />
        </mxCell>
        <mxCell id="rJEz44dccmCfuX08f4CU-109" value="genre_they_&lt;br&gt;mostly_direct" style="ellipse;whiteSpace=wrap;html=1;align=center;" parent="1" vertex="1">
          <mxGeometry x="725" y="-370" width="90" height="50" as="geometry" />
        </mxCell>
        <mxCell id="rJEz44dccmCfuX08f4CU-119" value="director_film" style="shape=associativeEntity;whiteSpace=wrap;html=1;align=center;" parent="1" vertex="1">
          <mxGeometry x="320" y="-350" width="130" height="50" as="geometry" />
        </mxCell>
        <mxCell id="rJEz44dccmCfuX08f4CU-126" value="M" style="text;html=1;align=center;verticalAlign=middle;resizable=0;points=[];autosize=1;strokeColor=none;fillColor=none;" parent="1" vertex="1">
          <mxGeometry x="334" y="-109" width="42" height="28" as="geometry" />
        </mxCell>
        <mxCell id="rJEz44dccmCfuX08f4CU-127" value="1" style="text;html=1;align=center;verticalAlign=middle;resizable=0;points=[];autosize=1;strokeColor=none;fillColor=none;" parent="1" vertex="1">
          <mxGeometry x="499" y="-368" width="42" height="28" as="geometry" />
        </mxCell>
        <mxCell id="rJEz44dccmCfuX08f4CU-128" value="payment" style="ellipse;whiteSpace=wrap;html=1;align=center;" parent="1" vertex="1">
          <mxGeometry x="335" y="-430" width="70" height="50" as="geometry" />
        </mxCell>
        <mxCell id="rJEz44dccmCfuX08f4CU-131" value="sequel" style="rounded=0;whiteSpace=wrap;html=1;" parent="1" vertex="1">
          <mxGeometry x="-280" y="-150" width="120" height="60" as="geometry" />
        </mxCell>
        <mxCell id="rJEz44dccmCfuX08f4CU-135" value="&lt;span style=&quot;border-bottom: 1px dotted&quot;&gt;director_id&lt;/span&gt;" style="ellipse;whiteSpace=wrap;html=1;align=center;" parent="1" vertex="1">
          <mxGeometry x="155" y="-360" width="100" height="40" as="geometry" />
        </mxCell>
        <mxCell id="rJEz44dccmCfuX08f4CU-136" value="&lt;span style=&quot;border-bottom: 1px dotted&quot;&gt;movie_id&lt;/span&gt;" style="ellipse;whiteSpace=wrap;html=1;align=center;" parent="1" vertex="1">
          <mxGeometry x="220" y="-420" width="100" height="40" as="geometry" />
        </mxCell>
        <mxCell id="rJEz44dccmCfuX08f4CU-138" value="&lt;span style=&quot;border-bottom: 1px dotted&quot;&gt;movie_id&lt;/span&gt;" style="ellipse;whiteSpace=wrap;html=1;align=center;" parent="1" vertex="1">
          <mxGeometry x="98" y="-90" width="100" height="40" as="geometry" />
        </mxCell>
        <mxCell id="rJEz44dccmCfuX08f4CU-139" value="&lt;span style=&quot;border-bottom: 1px dotted&quot;&gt;movie_id&lt;/span&gt;" style="ellipse;whiteSpace=wrap;html=1;align=center;" parent="1" vertex="1">
          <mxGeometry x="600" y="-65" width="100" height="40" as="geometry" />
        </mxCell>
        <mxCell id="rJEz44dccmCfuX08f4CU-142" value="&lt;span style=&quot;border-bottom: 1px dotted&quot;&gt;director_id&lt;/span&gt;" style="ellipse;whiteSpace=wrap;html=1;align=center;" parent="1" vertex="1">
          <mxGeometry x="715" y="-310" width="100" height="40" as="geometry" />
        </mxCell>
        <mxCell id="rJEz44dccmCfuX08f4CU-145" value="id" style="ellipse;whiteSpace=wrap;html=1;align=center;fontStyle=4;" parent="1" vertex="1">
          <mxGeometry x="-340" y="-50" width="60" height="40" as="geometry" />
        </mxCell>
        <mxCell id="rJEz44dccmCfuX08f4CU-146" value="have" style="shape=rhombus;perimeter=rhombusPerimeter;whiteSpace=wrap;html=1;align=center;" parent="1" vertex="1">
          <mxGeometry x="-25" y="-50" width="120" height="60" as="geometry" />
        </mxCell>
        <mxCell id="rJEz44dccmCfuX08f4CU-150" value="1" style="text;html=1;align=center;verticalAlign=middle;resizable=0;points=[];autosize=1;strokeColor=none;fillColor=none;" parent="1" vertex="1">
          <mxGeometry x="230" y="-25" width="30" height="30" as="geometry" />
        </mxCell>
        <mxCell id="rJEz44dccmCfuX08f4CU-152" value="&lt;span style=&quot;border-bottom: 1px dotted&quot;&gt;film_id&lt;/span&gt;" style="ellipse;whiteSpace=wrap;html=1;align=center;" parent="1" vertex="1">
          <mxGeometry x="-260" y="-25" width="100" height="40" as="geometry" />
        </mxCell>
        <mxCell id="rJEz44dccmCfuX08f4CU-201" style="edgeStyle=orthogonalEdgeStyle;rounded=0;orthogonalLoop=1;jettySize=auto;html=1;exitX=1;exitY=0.5;exitDx=0;exitDy=0;entryX=0;entryY=0.5;entryDx=0;entryDy=0;" parent="1" source="rJEz44dccmCfuX08f4CU-154" target="rJEz44dccmCfuX08f4CU-196" edge="1">
          <mxGeometry relative="1" as="geometry" />
        </mxCell>
        <mxCell id="rJEz44dccmCfuX08f4CU-154" value="critic" style="rounded=0;whiteSpace=wrap;html=1;" parent="1" vertex="1">
          <mxGeometry x="-260" y="390" width="120" height="60" as="geometry" />
        </mxCell>
        <mxCell id="rJEz44dccmCfuX08f4CU-155" value="critic_id" style="ellipse;whiteSpace=wrap;html=1;align=center;fontStyle=4;" parent="1" vertex="1">
          <mxGeometry x="-340" y="520" width="60" height="40" as="geometry" />
        </mxCell>
        <mxCell id="rJEz44dccmCfuX08f4CU-156" value="first_name" style="ellipse;whiteSpace=wrap;html=1;align=center;" parent="1" vertex="1">
          <mxGeometry x="-266" y="520" width="70" height="40" as="geometry" />
        </mxCell>
        <mxCell id="rJEz44dccmCfuX08f4CU-157" value="last_name" style="ellipse;whiteSpace=wrap;html=1;align=center;" parent="1" vertex="1">
          <mxGeometry x="-182" y="520" width="70" height="40" as="geometry" />
        </mxCell>
        <mxCell id="rJEz44dccmCfuX08f4CU-162" value="user_name" style="ellipse;whiteSpace=wrap;html=1;align=center;" parent="1" vertex="1">
          <mxGeometry x="-434" y="490" width="70" height="40" as="geometry" />
        </mxCell>
        <mxCell id="rJEz44dccmCfuX08f4CU-165" value="password" style="ellipse;whiteSpace=wrap;html=1;align=center;" parent="1" vertex="1">
          <mxGeometry x="-448" y="440" width="70" height="40" as="geometry" />
        </mxCell>
        <mxCell id="rJEz44dccmCfuX08f4CU-172" value="&lt;span style=&quot;border-bottom: 1px dotted&quot;&gt;movie_id&lt;/span&gt;" style="ellipse;whiteSpace=wrap;html=1;align=center;" parent="1" vertex="1">
          <mxGeometry x="-366" y="197.5" width="100" height="45" as="geometry" />
        </mxCell>
        <mxCell id="rJEz44dccmCfuX08f4CU-175" value="&lt;span style=&quot;border-bottom: 1px dotted&quot;&gt;critic_id&lt;/span&gt;" style="ellipse;whiteSpace=wrap;html=1;align=center;" parent="1" vertex="1">
          <mxGeometry x="-434" y="257.5" width="100" height="45" as="geometry" />
        </mxCell>
        <mxCell id="rJEz44dccmCfuX08f4CU-178" value="rating" style="ellipse;whiteSpace=wrap;html=1;align=center;" parent="1" vertex="1">
          <mxGeometry x="-406" y="310" width="98" height="48" as="geometry" />
        </mxCell>
        <mxCell id="rJEz44dccmCfuX08f4CU-180" value="M" style="text;html=1;align=center;verticalAlign=middle;resizable=0;points=[];autosize=1;strokeColor=none;fillColor=none;" parent="1" vertex="1">
          <mxGeometry x="120" y="236" width="42" height="28" as="geometry" />
        </mxCell>
        <mxCell id="rJEz44dccmCfuX08f4CU-181" value="M" style="text;html=1;align=center;verticalAlign=middle;resizable=0;points=[];autosize=1;strokeColor=none;fillColor=none;" parent="1" vertex="1">
          <mxGeometry x="-224" y="364" width="42" height="28" as="geometry" />
        </mxCell>
        <mxCell id="rJEz44dccmCfuX08f4CU-185" value="critique" style="shape=associativeEntity;whiteSpace=wrap;html=1;align=center;" parent="1" vertex="1">
          <mxGeometry x="-182" y="232" width="140" height="60" as="geometry" />
        </mxCell>
        <mxCell id="rJEz44dccmCfuX08f4CU-186" value="M" style="text;strokeColor=none;fillColor=none;spacingLeft=4;spacingRight=4;overflow=hidden;rotatable=0;points=[[0,0.5],[1,0.5]];portConstraint=eastwest;fontSize=12;whiteSpace=wrap;html=1;" parent="1" vertex="1">
          <mxGeometry x="305" y="510" width="20" height="20" as="geometry" />
        </mxCell>
        <mxCell id="rJEz44dccmCfuX08f4CU-187" value="M" style="text;strokeColor=none;fillColor=none;spacingLeft=4;spacingRight=4;overflow=hidden;rotatable=0;points=[[0,0.5],[1,0.5]];portConstraint=eastwest;fontSize=12;whiteSpace=wrap;html=1;" parent="1" vertex="1">
          <mxGeometry x="465" y="510" width="20" height="20" as="geometry" />
        </mxCell>
        <mxCell id="rJEz44dccmCfuX08f4CU-193" value="critique_id" style="ellipse;whiteSpace=wrap;html=1;align=center;fontStyle=4;" parent="1" vertex="1">
          <mxGeometry x="-256" y="160" width="74" height="40" as="geometry" />
        </mxCell>
        <mxCell id="rJEz44dccmCfuX08f4CU-196" value="actor_critic" style="shape=associativeEntity;whiteSpace=wrap;html=1;align=center;" parent="1" vertex="1">
          <mxGeometry x="60" y="588" width="140" height="60" as="geometry" />
        </mxCell>
        <mxCell id="rJEz44dccmCfuX08f4CU-197" value="&lt;span style=&quot;border-bottom: 1px dotted&quot;&gt;critique_id&lt;/span&gt;" style="ellipse;whiteSpace=wrap;html=1;align=center;" parent="1" vertex="1">
          <mxGeometry x="-142" y="658" width="100" height="45" as="geometry" />
        </mxCell>
        <mxCell id="rJEz44dccmCfuX08f4CU-199" value="&lt;span style=&quot;border-bottom: 1px dotted&quot;&gt;actor_id&lt;/span&gt;" style="ellipse;whiteSpace=wrap;html=1;align=center;" parent="1" vertex="1">
          <mxGeometry x="302.5" y="658" width="100" height="45" as="geometry" />
        </mxCell>
        <mxCell id="rJEz44dccmCfuX08f4CU-203" value="acting_grade" style="ellipse;whiteSpace=wrap;html=1;align=center;" parent="1" vertex="1">
          <mxGeometry x="-88" y="714" width="96" height="56" as="geometry" />
        </mxCell>
        <mxCell id="rJEz44dccmCfuX08f4CU-205" value="expression_grade" style="ellipse;whiteSpace=wrap;html=1;align=center;" parent="1" vertex="1">
          <mxGeometry x="-42" y="770" width="116" height="56" as="geometry" />
        </mxCell>
        <mxCell id="rJEz44dccmCfuX08f4CU-207" value="naturalness_grade" style="ellipse;whiteSpace=wrap;html=1;align=center;" parent="1" vertex="1">
          <mxGeometry x="155" y="770" width="116" height="56" as="geometry" />
        </mxCell>
        <mxCell id="rJEz44dccmCfuX08f4CU-209" value="devotion_grade" style="ellipse;whiteSpace=wrap;html=1;align=center;" parent="1" vertex="1">
          <mxGeometry x="250" y="714" width="116" height="56" as="geometry" />
        </mxCell>
        <mxCell id="rJEz44dccmCfuX08f4CU-211" value="M" style="text;strokeColor=none;fillColor=none;spacingLeft=4;spacingRight=4;overflow=hidden;rotatable=0;points=[[0,0.5],[1,0.5]];portConstraint=eastwest;fontSize=12;whiteSpace=wrap;html=1;" parent="1" vertex="1">
          <mxGeometry x="-132" y="420" width="20" height="20" as="geometry" />
        </mxCell>
        <mxCell id="rJEz44dccmCfuX08f4CU-212" value="M" style="text;strokeColor=none;fillColor=none;spacingLeft=4;spacingRight=4;overflow=hidden;rotatable=0;points=[[0,0.5],[1,0.5]];portConstraint=eastwest;fontSize=12;whiteSpace=wrap;html=1;" parent="1" vertex="1">
          <mxGeometry x="580" y="245" width="20" height="20" as="geometry" />
        </mxCell>
        <mxCell id="rJEz44dccmCfuX08f4CU-213" value="M" style="text;strokeColor=none;fillColor=none;spacingLeft=4;spacingRight=4;overflow=hidden;rotatable=0;points=[[0,0.5],[1,0.5]];portConstraint=eastwest;fontSize=12;whiteSpace=wrap;html=1;" parent="1" vertex="1">
          <mxGeometry x="210" y="588" width="20" height="20" as="geometry" />
        </mxCell>
        <mxCell id="rJEz44dccmCfuX08f4CU-214" value="M" style="text;strokeColor=none;fillColor=none;spacingLeft=4;spacingRight=4;overflow=hidden;rotatable=0;points=[[0,0.5],[1,0.5]];portConstraint=eastwest;fontSize=12;whiteSpace=wrap;html=1;" parent="1" vertex="1">
          <mxGeometry x="28" y="588" width="20" height="20" as="geometry" />
        </mxCell>
        <mxCell id="m1Zv-Pub5jHCw2q5mSXK-1" value="" style="endArrow=none;html=1;rounded=0;exitX=1;exitY=0;exitDx=0;exitDy=0;entryX=0;entryY=1;entryDx=0;entryDy=0;" edge="1" parent="1" source="rJEz44dccmCfuX08f4CU-178" target="rJEz44dccmCfuX08f4CU-185">
          <mxGeometry width="50" height="50" relative="1" as="geometry">
            <mxPoint x="-224" y="316" as="sourcePoint" />
            <mxPoint x="-174" y="266" as="targetPoint" />
          </mxGeometry>
        </mxCell>
        <mxCell id="m1Zv-Pub5jHCw2q5mSXK-2" value="" style="endArrow=none;html=1;rounded=0;exitX=1;exitY=0.5;exitDx=0;exitDy=0;entryX=0;entryY=0.75;entryDx=0;entryDy=0;" edge="1" parent="1" source="rJEz44dccmCfuX08f4CU-175" target="rJEz44dccmCfuX08f4CU-185">
          <mxGeometry width="50" height="50" relative="1" as="geometry">
            <mxPoint x="-224" y="316" as="sourcePoint" />
            <mxPoint x="-174" y="266" as="targetPoint" />
          </mxGeometry>
        </mxCell>
        <mxCell id="m1Zv-Pub5jHCw2q5mSXK-3" value="" style="endArrow=none;html=1;rounded=0;exitX=1;exitY=0.5;exitDx=0;exitDy=0;entryX=0;entryY=0.5;entryDx=0;entryDy=0;" edge="1" parent="1" source="rJEz44dccmCfuX08f4CU-172" target="rJEz44dccmCfuX08f4CU-185">
          <mxGeometry width="50" height="50" relative="1" as="geometry">
            <mxPoint x="-224" y="316" as="sourcePoint" />
            <mxPoint x="-174" y="266" as="targetPoint" />
          </mxGeometry>
        </mxCell>
        <mxCell id="m1Zv-Pub5jHCw2q5mSXK-4" value="" style="endArrow=none;html=1;rounded=0;entryX=1;entryY=1;entryDx=0;entryDy=0;exitX=0;exitY=0;exitDx=0;exitDy=0;" edge="1" parent="1" source="rJEz44dccmCfuX08f4CU-185" target="rJEz44dccmCfuX08f4CU-193">
          <mxGeometry width="50" height="50" relative="1" as="geometry">
            <mxPoint x="-224" y="316" as="sourcePoint" />
            <mxPoint x="-174" y="266" as="targetPoint" />
          </mxGeometry>
        </mxCell>
        <mxCell id="m1Zv-Pub5jHCw2q5mSXK-5" value="" style="endArrow=none;html=1;rounded=0;exitX=1;exitY=0.5;exitDx=0;exitDy=0;entryX=0;entryY=0.75;entryDx=0;entryDy=0;" edge="1" parent="1" source="rJEz44dccmCfuX08f4CU-165" target="rJEz44dccmCfuX08f4CU-154">
          <mxGeometry width="50" height="50" relative="1" as="geometry">
            <mxPoint x="-224" y="428" as="sourcePoint" />
            <mxPoint x="-174" y="378" as="targetPoint" />
          </mxGeometry>
        </mxCell>
        <mxCell id="m1Zv-Pub5jHCw2q5mSXK-6" value="" style="endArrow=none;html=1;rounded=0;exitX=1;exitY=0;exitDx=0;exitDy=0;entryX=0;entryY=1;entryDx=0;entryDy=0;" edge="1" parent="1" source="rJEz44dccmCfuX08f4CU-162" target="rJEz44dccmCfuX08f4CU-154">
          <mxGeometry width="50" height="50" relative="1" as="geometry">
            <mxPoint x="-224" y="428" as="sourcePoint" />
            <mxPoint x="-174" y="378" as="targetPoint" />
          </mxGeometry>
        </mxCell>
        <mxCell id="m1Zv-Pub5jHCw2q5mSXK-7" value="" style="endArrow=none;html=1;rounded=0;exitX=0.5;exitY=0;exitDx=0;exitDy=0;entryX=0.25;entryY=1;entryDx=0;entryDy=0;" edge="1" parent="1" source="rJEz44dccmCfuX08f4CU-155" target="rJEz44dccmCfuX08f4CU-154">
          <mxGeometry width="50" height="50" relative="1" as="geometry">
            <mxPoint x="-224" y="428" as="sourcePoint" />
            <mxPoint x="-174" y="378" as="targetPoint" />
          </mxGeometry>
        </mxCell>
        <mxCell id="m1Zv-Pub5jHCw2q5mSXK-8" value="" style="endArrow=none;html=1;rounded=0;exitX=0.5;exitY=0;exitDx=0;exitDy=0;entryX=0.5;entryY=1;entryDx=0;entryDy=0;" edge="1" parent="1" source="rJEz44dccmCfuX08f4CU-156" target="rJEz44dccmCfuX08f4CU-154">
          <mxGeometry width="50" height="50" relative="1" as="geometry">
            <mxPoint x="-224" y="428" as="sourcePoint" />
            <mxPoint x="-174" y="378" as="targetPoint" />
          </mxGeometry>
        </mxCell>
        <mxCell id="m1Zv-Pub5jHCw2q5mSXK-11" value="" style="endArrow=none;html=1;rounded=0;exitX=0.5;exitY=0;exitDx=0;exitDy=0;entryX=0.75;entryY=1;entryDx=0;entryDy=0;" edge="1" parent="1" source="rJEz44dccmCfuX08f4CU-157" target="rJEz44dccmCfuX08f4CU-154">
          <mxGeometry width="50" height="50" relative="1" as="geometry">
            <mxPoint x="-224" y="428" as="sourcePoint" />
            <mxPoint x="-174" y="378" as="targetPoint" />
          </mxGeometry>
        </mxCell>
        <mxCell id="m1Zv-Pub5jHCw2q5mSXK-12" value="" style="endArrow=none;html=1;rounded=0;entryX=0.5;entryY=1;entryDx=0;entryDy=0;exitX=0.5;exitY=0;exitDx=0;exitDy=0;" edge="1" parent="1" source="rJEz44dccmCfuX08f4CU-154" target="rJEz44dccmCfuX08f4CU-185">
          <mxGeometry width="50" height="50" relative="1" as="geometry">
            <mxPoint x="-224" y="526" as="sourcePoint" />
            <mxPoint x="-174" y="476" as="targetPoint" />
          </mxGeometry>
        </mxCell>
        <mxCell id="m1Zv-Pub5jHCw2q5mSXK-14" value="" style="shape=link;html=1;rounded=0;entryX=0;entryY=0.75;entryDx=0;entryDy=0;exitX=1;exitY=0.5;exitDx=0;exitDy=0;" edge="1" parent="1" source="rJEz44dccmCfuX08f4CU-185" target="rJEz44dccmCfuX08f4CU-1">
          <mxGeometry relative="1" as="geometry">
            <mxPoint x="14" y="392" as="sourcePoint" />
            <mxPoint x="174" y="392" as="targetPoint" />
          </mxGeometry>
        </mxCell>
        <mxCell id="m1Zv-Pub5jHCw2q5mSXK-16" value="" style="endArrow=none;html=1;rounded=0;exitX=0.25;exitY=1;exitDx=0;exitDy=0;" edge="1" parent="1" source="rJEz44dccmCfuX08f4CU-1" target="rJEz44dccmCfuX08f4CU-15">
          <mxGeometry relative="1" as="geometry">
            <mxPoint x="14" y="392" as="sourcePoint" />
            <mxPoint x="174" y="392" as="targetPoint" />
          </mxGeometry>
        </mxCell>
        <mxCell id="m1Zv-Pub5jHCw2q5mSXK-21" value="" style="endArrow=none;html=1;rounded=0;entryX=1;entryY=0;entryDx=0;entryDy=0;exitX=0;exitY=1;exitDx=0;exitDy=0;" edge="1" parent="1" source="rJEz44dccmCfuX08f4CU-1" target="rJEz44dccmCfuX08f4CU-6">
          <mxGeometry relative="1" as="geometry">
            <mxPoint x="14" y="196" as="sourcePoint" />
            <mxPoint x="174" y="196" as="targetPoint" />
          </mxGeometry>
        </mxCell>
        <mxCell id="m1Zv-Pub5jHCw2q5mSXK-22" value="" style="endArrow=none;html=1;rounded=0;entryX=0.5;entryY=1;entryDx=0;entryDy=0;exitX=0.5;exitY=0;exitDx=0;exitDy=0;" edge="1" parent="1" source="rJEz44dccmCfuX08f4CU-1" target="rJEz44dccmCfuX08f4CU-3">
          <mxGeometry relative="1" as="geometry">
            <mxPoint x="14" y="196" as="sourcePoint" />
            <mxPoint x="174" y="196" as="targetPoint" />
          </mxGeometry>
        </mxCell>
        <mxCell id="m1Zv-Pub5jHCw2q5mSXK-23" value="" style="endArrow=none;html=1;rounded=0;entryX=0;entryY=0.25;entryDx=0;entryDy=0;exitX=1;exitY=0.5;exitDx=0;exitDy=0;" edge="1" parent="1" source="rJEz44dccmCfuX08f4CU-5" target="rJEz44dccmCfuX08f4CU-1">
          <mxGeometry relative="1" as="geometry">
            <mxPoint x="14" y="196" as="sourcePoint" />
            <mxPoint x="174" y="196" as="targetPoint" />
          </mxGeometry>
        </mxCell>
        <mxCell id="m1Zv-Pub5jHCw2q5mSXK-25" value="" style="endArrow=none;html=1;rounded=0;exitX=1;exitY=0.5;exitDx=0;exitDy=0;entryX=0;entryY=0;entryDx=0;entryDy=0;" edge="1" parent="1" source="rJEz44dccmCfuX08f4CU-4" target="rJEz44dccmCfuX08f4CU-1">
          <mxGeometry relative="1" as="geometry">
            <mxPoint x="14" y="196" as="sourcePoint" />
            <mxPoint x="174" y="196" as="targetPoint" />
          </mxGeometry>
        </mxCell>
        <mxCell id="m1Zv-Pub5jHCw2q5mSXK-26" value="" style="endArrow=none;html=1;rounded=0;exitX=0.5;exitY=1;exitDx=0;exitDy=0;entryX=0.25;entryY=0;entryDx=0;entryDy=0;" edge="1" parent="1" source="rJEz44dccmCfuX08f4CU-2" target="rJEz44dccmCfuX08f4CU-1">
          <mxGeometry relative="1" as="geometry">
            <mxPoint x="14" y="196" as="sourcePoint" />
            <mxPoint x="174" y="196" as="targetPoint" />
          </mxGeometry>
        </mxCell>
        <mxCell id="m1Zv-Pub5jHCw2q5mSXK-27" value="" style="endArrow=none;html=1;rounded=0;entryX=0;entryY=0.5;entryDx=0;entryDy=0;exitX=0.5;exitY=1;exitDx=0;exitDy=0;" edge="1" parent="1" source="rJEz44dccmCfuX08f4CU-1" target="rJEz44dccmCfuX08f4CU-46">
          <mxGeometry relative="1" as="geometry">
            <mxPoint x="168" y="294" as="sourcePoint" />
            <mxPoint x="328" y="294" as="targetPoint" />
            <Array as="points">
              <mxPoint x="252" y="504" />
            </Array>
          </mxGeometry>
        </mxCell>
        <mxCell id="m1Zv-Pub5jHCw2q5mSXK-28" value="" style="endArrow=none;html=1;rounded=0;entryX=0.25;entryY=1;entryDx=0;entryDy=0;exitX=1;exitY=0.5;exitDx=0;exitDy=0;" edge="1" parent="1" source="rJEz44dccmCfuX08f4CU-46" target="rJEz44dccmCfuX08f4CU-17">
          <mxGeometry relative="1" as="geometry">
            <mxPoint x="168" y="294" as="sourcePoint" />
            <mxPoint x="328" y="294" as="targetPoint" />
            <Array as="points">
              <mxPoint x="546" y="462" />
            </Array>
          </mxGeometry>
        </mxCell>
        <mxCell id="m1Zv-Pub5jHCw2q5mSXK-30" value="" style="endArrow=none;html=1;rounded=0;exitX=1;exitY=0.5;exitDx=0;exitDy=0;entryX=0;entryY=1;entryDx=0;entryDy=0;" edge="1" parent="1" source="rJEz44dccmCfuX08f4CU-197" target="rJEz44dccmCfuX08f4CU-196">
          <mxGeometry relative="1" as="geometry">
            <mxPoint x="168" y="504" as="sourcePoint" />
            <mxPoint x="328" y="504" as="targetPoint" />
          </mxGeometry>
        </mxCell>
        <mxCell id="m1Zv-Pub5jHCw2q5mSXK-31" value="" style="endArrow=none;html=1;rounded=0;exitX=1;exitY=0;exitDx=0;exitDy=0;entryX=0.25;entryY=1;entryDx=0;entryDy=0;" edge="1" parent="1" source="rJEz44dccmCfuX08f4CU-203" target="rJEz44dccmCfuX08f4CU-196">
          <mxGeometry relative="1" as="geometry">
            <mxPoint x="168" y="504" as="sourcePoint" />
            <mxPoint x="328" y="504" as="targetPoint" />
          </mxGeometry>
        </mxCell>
        <mxCell id="m1Zv-Pub5jHCw2q5mSXK-32" value="" style="endArrow=none;html=1;rounded=0;exitX=0.5;exitY=0;exitDx=0;exitDy=0;entryX=0.5;entryY=1;entryDx=0;entryDy=0;" edge="1" parent="1" source="rJEz44dccmCfuX08f4CU-205" target="rJEz44dccmCfuX08f4CU-196">
          <mxGeometry relative="1" as="geometry">
            <mxPoint x="8" y="736" as="sourcePoint" />
            <mxPoint x="109" y="662" as="targetPoint" />
          </mxGeometry>
        </mxCell>
        <mxCell id="m1Zv-Pub5jHCw2q5mSXK-33" value="" style="endArrow=none;html=1;rounded=0;exitX=0.5;exitY=0;exitDx=0;exitDy=0;entryX=0.75;entryY=1;entryDx=0;entryDy=0;" edge="1" parent="1" source="rJEz44dccmCfuX08f4CU-207" target="rJEz44dccmCfuX08f4CU-196">
          <mxGeometry relative="1" as="geometry">
            <mxPoint x="22" y="750" as="sourcePoint" />
            <mxPoint x="123" y="676" as="targetPoint" />
          </mxGeometry>
        </mxCell>
        <mxCell id="m1Zv-Pub5jHCw2q5mSXK-34" value="" style="endArrow=none;html=1;rounded=0;exitX=1;exitY=1;exitDx=0;exitDy=0;entryX=0;entryY=0;entryDx=0;entryDy=0;" edge="1" parent="1" source="rJEz44dccmCfuX08f4CU-196" target="rJEz44dccmCfuX08f4CU-209">
          <mxGeometry relative="1" as="geometry">
            <mxPoint x="36" y="764" as="sourcePoint" />
            <mxPoint x="137" y="690" as="targetPoint" />
          </mxGeometry>
        </mxCell>
        <mxCell id="m1Zv-Pub5jHCw2q5mSXK-35" value="" style="endArrow=none;html=1;rounded=0;exitX=1;exitY=0.75;exitDx=0;exitDy=0;entryX=0;entryY=0.5;entryDx=0;entryDy=0;" edge="1" parent="1" source="rJEz44dccmCfuX08f4CU-196" target="rJEz44dccmCfuX08f4CU-199">
          <mxGeometry relative="1" as="geometry">
            <mxPoint x="214" y="662" as="sourcePoint" />
            <mxPoint x="281" y="736" as="targetPoint" />
          </mxGeometry>
        </mxCell>
        <mxCell id="m1Zv-Pub5jHCw2q5mSXK-36" value="final_grade" style="ellipse;whiteSpace=wrap;html=1;align=center;" vertex="1" parent="1">
          <mxGeometry x="62" y="742" width="100" height="40" as="geometry" />
        </mxCell>
        <mxCell id="m1Zv-Pub5jHCw2q5mSXK-37" value="" style="endArrow=none;html=1;rounded=0;entryX=0.5;entryY=0;entryDx=0;entryDy=0;exitX=0.5;exitY=1;exitDx=0;exitDy=0;" edge="1" parent="1" source="rJEz44dccmCfuX08f4CU-196" target="m1Zv-Pub5jHCw2q5mSXK-36">
          <mxGeometry relative="1" as="geometry">
            <mxPoint x="168" y="602" as="sourcePoint" />
            <mxPoint x="328" y="602" as="targetPoint" />
          </mxGeometry>
        </mxCell>
        <mxCell id="m1Zv-Pub5jHCw2q5mSXK-39" value="" style="endArrow=none;html=1;rounded=0;entryX=0;entryY=0;entryDx=0;entryDy=0;exitX=1;exitY=1;exitDx=0;exitDy=0;" edge="1" parent="1" source="rJEz44dccmCfuX08f4CU-50" target="rJEz44dccmCfuX08f4CU-46">
          <mxGeometry relative="1" as="geometry">
            <mxPoint x="168" y="294" as="sourcePoint" />
            <mxPoint x="328" y="294" as="targetPoint" />
          </mxGeometry>
        </mxCell>
        <mxCell id="m1Zv-Pub5jHCw2q5mSXK-40" value="" style="endArrow=none;html=1;rounded=0;entryX=0.25;entryY=0;entryDx=0;entryDy=0;exitX=0.5;exitY=1;exitDx=0;exitDy=0;" edge="1" parent="1" source="rJEz44dccmCfuX08f4CU-55" target="rJEz44dccmCfuX08f4CU-46">
          <mxGeometry relative="1" as="geometry">
            <mxPoint x="168" y="294" as="sourcePoint" />
            <mxPoint x="364" y="476" as="targetPoint" />
          </mxGeometry>
        </mxCell>
        <mxCell id="m1Zv-Pub5jHCw2q5mSXK-41" value="" style="endArrow=none;html=1;rounded=0;entryX=0.5;entryY=0;entryDx=0;entryDy=0;exitX=0.5;exitY=1;exitDx=0;exitDy=0;" edge="1" parent="1" source="rJEz44dccmCfuX08f4CU-52" target="rJEz44dccmCfuX08f4CU-46">
          <mxGeometry relative="1" as="geometry">
            <mxPoint x="369" y="434" as="sourcePoint" />
            <mxPoint x="369" y="494" as="targetPoint" />
          </mxGeometry>
        </mxCell>
        <mxCell id="m1Zv-Pub5jHCw2q5mSXK-42" value="" style="endArrow=none;html=1;rounded=0;entryX=0.75;entryY=0;entryDx=0;entryDy=0;exitX=0;exitY=1;exitDx=0;exitDy=0;" edge="1" parent="1" source="rJEz44dccmCfuX08f4CU-48" target="rJEz44dccmCfuX08f4CU-46">
          <mxGeometry relative="1" as="geometry">
            <mxPoint x="444" y="434" as="sourcePoint" />
            <mxPoint x="404" y="494" as="targetPoint" />
          </mxGeometry>
        </mxCell>
        <mxCell id="m1Zv-Pub5jHCw2q5mSXK-43" value="" style="shape=link;html=1;rounded=0;entryX=0;entryY=0.5;entryDx=0;entryDy=0;exitX=1;exitY=1;exitDx=0;exitDy=0;" edge="1" parent="1" source="rJEz44dccmCfuX08f4CU-1" target="rJEz44dccmCfuX08f4CU-36">
          <mxGeometry relative="1" as="geometry">
            <mxPoint x="168" y="196" as="sourcePoint" />
            <mxPoint x="328" y="196" as="targetPoint" />
          </mxGeometry>
        </mxCell>
        <mxCell id="m1Zv-Pub5jHCw2q5mSXK-45" value="" style="shape=link;html=1;rounded=0;entryX=1;entryY=0.5;entryDx=0;entryDy=0;exitX=0;exitY=0.75;exitDx=0;exitDy=0;" edge="1" parent="1" source="rJEz44dccmCfuX08f4CU-17" target="rJEz44dccmCfuX08f4CU-36">
          <mxGeometry relative="1" as="geometry">
            <mxPoint x="294" y="264" as="sourcePoint" />
            <mxPoint x="334" y="324" as="targetPoint" />
          </mxGeometry>
        </mxCell>
        <mxCell id="m1Zv-Pub5jHCw2q5mSXK-46" value="" style="endArrow=none;html=1;rounded=0;entryX=0.25;entryY=0;entryDx=0;entryDy=0;exitX=0.5;exitY=1;exitDx=0;exitDy=0;" edge="1" parent="1" source="rJEz44dccmCfuX08f4CU-41" target="rJEz44dccmCfuX08f4CU-36">
          <mxGeometry relative="1" as="geometry">
            <mxPoint x="168" y="196" as="sourcePoint" />
            <mxPoint x="328" y="196" as="targetPoint" />
          </mxGeometry>
        </mxCell>
        <mxCell id="m1Zv-Pub5jHCw2q5mSXK-47" value="" style="endArrow=none;html=1;rounded=0;entryX=0.75;entryY=0;entryDx=0;entryDy=0;exitX=0.5;exitY=1;exitDx=0;exitDy=0;" edge="1" parent="1" source="rJEz44dccmCfuX08f4CU-40" target="rJEz44dccmCfuX08f4CU-36">
          <mxGeometry relative="1" as="geometry">
            <mxPoint x="367" y="274" as="sourcePoint" />
            <mxPoint x="369" y="294" as="targetPoint" />
          </mxGeometry>
        </mxCell>
        <mxCell id="m1Zv-Pub5jHCw2q5mSXK-48" value="" style="endArrow=none;html=1;rounded=0;entryX=0.5;entryY=0;entryDx=0;entryDy=0;exitX=0.5;exitY=1;exitDx=0;exitDy=0;" edge="1" parent="1" source="rJEz44dccmCfuX08f4CU-44" target="rJEz44dccmCfuX08f4CU-36">
          <mxGeometry relative="1" as="geometry">
            <mxPoint x="381" y="288" as="sourcePoint" />
            <mxPoint x="383" y="308" as="targetPoint" />
          </mxGeometry>
        </mxCell>
        <mxCell id="m1Zv-Pub5jHCw2q5mSXK-49" value="" style="endArrow=none;html=1;rounded=0;exitX=1;exitY=1;exitDx=0;exitDy=0;entryX=0.25;entryY=0;entryDx=0;entryDy=0;" edge="1" parent="1" source="rJEz44dccmCfuX08f4CU-19" target="rJEz44dccmCfuX08f4CU-17">
          <mxGeometry relative="1" as="geometry">
            <mxPoint x="420" y="196" as="sourcePoint" />
            <mxPoint x="580" y="196" as="targetPoint" />
          </mxGeometry>
        </mxCell>
        <mxCell id="m1Zv-Pub5jHCw2q5mSXK-50" value="" style="endArrow=none;html=1;rounded=0;entryX=0.5;entryY=0;entryDx=0;entryDy=0;exitX=0.5;exitY=1;exitDx=0;exitDy=0;" edge="1" parent="1" source="rJEz44dccmCfuX08f4CU-21" target="rJEz44dccmCfuX08f4CU-17">
          <mxGeometry relative="1" as="geometry">
            <mxPoint x="395" y="302" as="sourcePoint" />
            <mxPoint x="397" y="322" as="targetPoint" />
          </mxGeometry>
        </mxCell>
        <mxCell id="m1Zv-Pub5jHCw2q5mSXK-51" value="" style="endArrow=none;html=1;rounded=0;entryX=0.75;entryY=0;entryDx=0;entryDy=0;exitX=0;exitY=1;exitDx=0;exitDy=0;" edge="1" parent="1" source="rJEz44dccmCfuX08f4CU-23" target="rJEz44dccmCfuX08f4CU-17">
          <mxGeometry relative="1" as="geometry">
            <mxPoint x="594" y="144" as="sourcePoint" />
            <mxPoint x="594" y="194" as="targetPoint" />
          </mxGeometry>
        </mxCell>
        <mxCell id="m1Zv-Pub5jHCw2q5mSXK-52" value="" style="endArrow=none;html=1;rounded=0;entryX=1;entryY=0.25;entryDx=0;entryDy=0;exitX=0;exitY=0.5;exitDx=0;exitDy=0;" edge="1" parent="1" source="rJEz44dccmCfuX08f4CU-30" target="rJEz44dccmCfuX08f4CU-17">
          <mxGeometry relative="1" as="geometry">
            <mxPoint x="608" y="158" as="sourcePoint" />
            <mxPoint x="608" y="208" as="targetPoint" />
          </mxGeometry>
        </mxCell>
        <mxCell id="m1Zv-Pub5jHCw2q5mSXK-53" value="" style="endArrow=none;html=1;rounded=0;entryX=1;entryY=0.75;entryDx=0;entryDy=0;exitX=0;exitY=0.5;exitDx=0;exitDy=0;" edge="1" parent="1" source="rJEz44dccmCfuX08f4CU-32" target="rJEz44dccmCfuX08f4CU-17">
          <mxGeometry relative="1" as="geometry">
            <mxPoint x="622" y="172" as="sourcePoint" />
            <mxPoint x="622" y="222" as="targetPoint" />
          </mxGeometry>
        </mxCell>
        <mxCell id="m1Zv-Pub5jHCw2q5mSXK-54" value="" style="endArrow=none;html=1;rounded=0;entryX=0;entryY=0.5;entryDx=0;entryDy=0;exitX=1;exitY=1;exitDx=0;exitDy=0;" edge="1" parent="1" source="rJEz44dccmCfuX08f4CU-17" target="rJEz44dccmCfuX08f4CU-34">
          <mxGeometry relative="1" as="geometry">
            <mxPoint x="636" y="186" as="sourcePoint" />
            <mxPoint x="636" y="236" as="targetPoint" />
          </mxGeometry>
        </mxCell>
        <mxCell id="m1Zv-Pub5jHCw2q5mSXK-55" value="" style="shape=link;html=1;rounded=0;entryX=1;entryY=1;entryDx=0;entryDy=0;exitX=0;exitY=0.5;exitDx=0;exitDy=0;" edge="1" parent="1" source="rJEz44dccmCfuX08f4CU-146" target="rJEz44dccmCfuX08f4CU-131">
          <mxGeometry relative="1" as="geometry">
            <mxPoint x="-14" as="sourcePoint" />
            <mxPoint x="146" as="targetPoint" />
          </mxGeometry>
        </mxCell>
        <mxCell id="m1Zv-Pub5jHCw2q5mSXK-56" value="1" style="resizable=0;html=1;whiteSpace=wrap;align=right;verticalAlign=bottom;" connectable="0" vertex="1" parent="m1Zv-Pub5jHCw2q5mSXK-55">
          <mxGeometry x="1" relative="1" as="geometry">
            <mxPoint x="18" as="offset" />
          </mxGeometry>
        </mxCell>
        <mxCell id="m1Zv-Pub5jHCw2q5mSXK-57" value="" style="endArrow=none;html=1;rounded=0;entryX=0;entryY=1;entryDx=0;entryDy=0;exitX=1;exitY=0.5;exitDx=0;exitDy=0;" edge="1" parent="1" source="rJEz44dccmCfuX08f4CU-146" target="rJEz44dccmCfuX08f4CU-63">
          <mxGeometry relative="1" as="geometry">
            <mxPoint x="-14" as="sourcePoint" />
            <mxPoint x="146" as="targetPoint" />
            <Array as="points" />
          </mxGeometry>
        </mxCell>
        <mxCell id="m1Zv-Pub5jHCw2q5mSXK-58" value="" style="endArrow=none;html=1;rounded=0;entryX=0.5;entryY=0;entryDx=0;entryDy=0;exitX=0.5;exitY=1;exitDx=0;exitDy=0;" edge="1" parent="1" source="rJEz44dccmCfuX08f4CU-131" target="rJEz44dccmCfuX08f4CU-152">
          <mxGeometry relative="1" as="geometry">
            <mxPoint x="-14" as="sourcePoint" />
            <mxPoint x="146" as="targetPoint" />
          </mxGeometry>
        </mxCell>
        <mxCell id="m1Zv-Pub5jHCw2q5mSXK-59" value="" style="endArrow=none;html=1;rounded=0;exitX=1;exitY=0;exitDx=0;exitDy=0;entryX=0.25;entryY=1;entryDx=0;entryDy=0;" edge="1" parent="1" source="rJEz44dccmCfuX08f4CU-145" target="rJEz44dccmCfuX08f4CU-131">
          <mxGeometry relative="1" as="geometry">
            <mxPoint x="-14" as="sourcePoint" />
            <mxPoint x="146" as="targetPoint" />
          </mxGeometry>
        </mxCell>
        <mxCell id="m1Zv-Pub5jHCw2q5mSXK-60" value="" style="endArrow=none;html=1;rounded=0;exitX=1;exitY=0.5;exitDx=0;exitDy=0;entryX=0;entryY=0.25;entryDx=0;entryDy=0;" edge="1" parent="1" source="rJEz44dccmCfuX08f4CU-138" target="rJEz44dccmCfuX08f4CU-63">
          <mxGeometry relative="1" as="geometry">
            <mxPoint x="210" y="-98" as="sourcePoint" />
            <mxPoint x="370" y="-98" as="targetPoint" />
          </mxGeometry>
        </mxCell>
        <mxCell id="m1Zv-Pub5jHCw2q5mSXK-61" value="" style="endArrow=none;html=1;rounded=0;exitX=1;exitY=0.5;exitDx=0;exitDy=0;entryX=0;entryY=0;entryDx=0;entryDy=0;" edge="1" parent="1" source="rJEz44dccmCfuX08f4CU-69" target="rJEz44dccmCfuX08f4CU-63">
          <mxGeometry relative="1" as="geometry">
            <mxPoint x="212" y="-56" as="sourcePoint" />
            <mxPoint x="264" y="-51" as="targetPoint" />
          </mxGeometry>
        </mxCell>
        <mxCell id="m1Zv-Pub5jHCw2q5mSXK-63" value="" style="endArrow=none;html=1;rounded=0;exitX=0.5;exitY=1;exitDx=0;exitDy=0;entryX=0.5;entryY=0;entryDx=0;entryDy=0;" edge="1" parent="1" source="rJEz44dccmCfuX08f4CU-73" target="rJEz44dccmCfuX08f4CU-63">
          <mxGeometry relative="1" as="geometry">
            <mxPoint x="210" y="-98" as="sourcePoint" />
            <mxPoint x="370" y="-98" as="targetPoint" />
          </mxGeometry>
        </mxCell>
        <mxCell id="m1Zv-Pub5jHCw2q5mSXK-64" value="" style="endArrow=none;html=1;rounded=0;exitX=1;exitY=1;exitDx=0;exitDy=0;entryX=0.25;entryY=0;entryDx=0;entryDy=0;" edge="1" parent="1" source="rJEz44dccmCfuX08f4CU-68" target="rJEz44dccmCfuX08f4CU-63">
          <mxGeometry relative="1" as="geometry">
            <mxPoint x="228" y="-106" as="sourcePoint" />
            <mxPoint x="264" y="-66" as="targetPoint" />
          </mxGeometry>
        </mxCell>
        <mxCell id="m1Zv-Pub5jHCw2q5mSXK-65" value="" style="endArrow=none;html=1;rounded=0;entryX=1;entryY=0;entryDx=0;entryDy=0;exitX=0.5;exitY=1;exitDx=0;exitDy=0;" edge="1" parent="1" source="rJEz44dccmCfuX08f4CU-86" target="rJEz44dccmCfuX08f4CU-1">
          <mxGeometry relative="1" as="geometry">
            <mxPoint x="210" y="98" as="sourcePoint" />
            <mxPoint x="370" y="98" as="targetPoint" />
          </mxGeometry>
        </mxCell>
        <mxCell id="m1Zv-Pub5jHCw2q5mSXK-66" value="" style="endArrow=none;html=1;rounded=0;entryX=0.25;entryY=1;entryDx=0;entryDy=0;exitX=1;exitY=0;exitDx=0;exitDy=0;" edge="1" parent="1" source="rJEz44dccmCfuX08f4CU-86" target="rJEz44dccmCfuX08f4CU-64">
          <mxGeometry relative="1" as="geometry">
            <mxPoint x="210" y="98" as="sourcePoint" />
            <mxPoint x="370" y="98" as="targetPoint" />
          </mxGeometry>
        </mxCell>
        <mxCell id="m1Zv-Pub5jHCw2q5mSXK-67" value="" style="endArrow=none;html=1;rounded=0;exitX=0.75;exitY=1;exitDx=0;exitDy=0;entryX=0;entryY=0;entryDx=0;entryDy=0;" edge="1" parent="1" source="rJEz44dccmCfuX08f4CU-63" target="rJEz44dccmCfuX08f4CU-86">
          <mxGeometry relative="1" as="geometry">
            <mxPoint x="210" y="98" as="sourcePoint" />
            <mxPoint x="370" y="98" as="targetPoint" />
          </mxGeometry>
        </mxCell>
        <mxCell id="m1Zv-Pub5jHCw2q5mSXK-68" value="" style="endArrow=none;html=1;rounded=0;entryX=0.635;entryY=0.94;entryDx=0;entryDy=0;entryPerimeter=0;exitX=0.25;exitY=0;exitDx=0;exitDy=0;" edge="1" parent="1" source="rJEz44dccmCfuX08f4CU-64" target="rJEz44dccmCfuX08f4CU-90">
          <mxGeometry relative="1" as="geometry">
            <mxPoint x="210" as="sourcePoint" />
            <mxPoint x="370" as="targetPoint" />
          </mxGeometry>
        </mxCell>
        <mxCell id="m1Zv-Pub5jHCw2q5mSXK-69" value="" style="endArrow=none;html=1;rounded=0;entryX=0.5;entryY=1;entryDx=0;entryDy=0;exitX=0.5;exitY=0;exitDx=0;exitDy=0;" edge="1" parent="1" source="rJEz44dccmCfuX08f4CU-64" target="rJEz44dccmCfuX08f4CU-91">
          <mxGeometry relative="1" as="geometry">
            <mxPoint x="484" y="-66" as="sourcePoint" />
            <mxPoint x="445" y="-108" as="targetPoint" />
          </mxGeometry>
        </mxCell>
        <mxCell id="m1Zv-Pub5jHCw2q5mSXK-70" value="" style="endArrow=none;html=1;rounded=0;entryX=0;entryY=1;entryDx=0;entryDy=0;exitX=1;exitY=0;exitDx=0;exitDy=0;" edge="1" parent="1" source="rJEz44dccmCfuX08f4CU-64" target="rJEz44dccmCfuX08f4CU-97">
          <mxGeometry relative="1" as="geometry">
            <mxPoint x="498" y="-52" as="sourcePoint" />
            <mxPoint x="459" y="-94" as="targetPoint" />
          </mxGeometry>
        </mxCell>
        <mxCell id="m1Zv-Pub5jHCw2q5mSXK-71" value="" style="endArrow=none;html=1;rounded=0;entryX=0;entryY=0.5;entryDx=0;entryDy=0;exitX=1;exitY=0.5;exitDx=0;exitDy=0;" edge="1" parent="1" source="rJEz44dccmCfuX08f4CU-64" target="rJEz44dccmCfuX08f4CU-139">
          <mxGeometry relative="1" as="geometry">
            <mxPoint x="574" y="-66" as="sourcePoint" />
            <mxPoint x="601" y="-79" as="targetPoint" />
          </mxGeometry>
        </mxCell>
        <mxCell id="m1Zv-Pub5jHCw2q5mSXK-72" value="" style="shape=link;html=1;rounded=0;entryX=0.5;entryY=1;entryDx=0;entryDy=0;exitX=0.75;exitY=0;exitDx=0;exitDy=0;" edge="1" parent="1" source="rJEz44dccmCfuX08f4CU-63" target="rJEz44dccmCfuX08f4CU-119">
          <mxGeometry relative="1" as="geometry">
            <mxPoint x="210" y="-196" as="sourcePoint" />
            <mxPoint x="370" y="-196" as="targetPoint" />
          </mxGeometry>
        </mxCell>
        <mxCell id="m1Zv-Pub5jHCw2q5mSXK-74" value="" style="endArrow=none;html=1;rounded=0;entryX=0;entryY=1;entryDx=0;entryDy=0;exitX=1;exitY=0.5;exitDx=0;exitDy=0;" edge="1" parent="1" source="rJEz44dccmCfuX08f4CU-119" target="rJEz44dccmCfuX08f4CU-99">
          <mxGeometry relative="1" as="geometry">
            <mxPoint x="210" y="-196" as="sourcePoint" />
            <mxPoint x="370" y="-196" as="targetPoint" />
          </mxGeometry>
        </mxCell>
        <mxCell id="m1Zv-Pub5jHCw2q5mSXK-75" value="" style="endArrow=none;html=1;rounded=0;exitX=1;exitY=0.5;exitDx=0;exitDy=0;entryX=0;entryY=0.5;entryDx=0;entryDy=0;" edge="1" parent="1" source="rJEz44dccmCfuX08f4CU-135" target="rJEz44dccmCfuX08f4CU-119">
          <mxGeometry relative="1" as="geometry">
            <mxPoint x="210" y="-196" as="sourcePoint" />
            <mxPoint x="370" y="-196" as="targetPoint" />
          </mxGeometry>
        </mxCell>
        <mxCell id="m1Zv-Pub5jHCw2q5mSXK-76" value="" style="endArrow=none;html=1;rounded=0;exitX=1;exitY=1;exitDx=0;exitDy=0;entryX=0.25;entryY=0;entryDx=0;entryDy=0;" edge="1" parent="1" source="rJEz44dccmCfuX08f4CU-136" target="rJEz44dccmCfuX08f4CU-119">
          <mxGeometry relative="1" as="geometry">
            <mxPoint x="269" y="-326" as="sourcePoint" />
            <mxPoint x="334" y="-311" as="targetPoint" />
          </mxGeometry>
        </mxCell>
        <mxCell id="m1Zv-Pub5jHCw2q5mSXK-77" value="" style="endArrow=none;html=1;rounded=0;exitX=0.5;exitY=1;exitDx=0;exitDy=0;entryX=0.5;entryY=0;entryDx=0;entryDy=0;" edge="1" parent="1" source="rJEz44dccmCfuX08f4CU-128" target="rJEz44dccmCfuX08f4CU-119">
          <mxGeometry relative="1" as="geometry">
            <mxPoint x="319" y="-372" as="sourcePoint" />
            <mxPoint x="367" y="-336" as="targetPoint" />
          </mxGeometry>
        </mxCell>
        <mxCell id="m1Zv-Pub5jHCw2q5mSXK-78" value="" style="endArrow=none;html=1;rounded=0;exitX=0.5;exitY=1;exitDx=0;exitDy=0;entryX=0.5;entryY=0;entryDx=0;entryDy=0;" edge="1" parent="1" source="rJEz44dccmCfuX08f4CU-99" target="rJEz44dccmCfuX08f4CU-105">
          <mxGeometry relative="1" as="geometry">
            <mxPoint x="384" y="-366" as="sourcePoint" />
            <mxPoint x="399" y="-336" as="targetPoint" />
          </mxGeometry>
        </mxCell>
        <mxCell id="m1Zv-Pub5jHCw2q5mSXK-79" value="" style="endArrow=none;html=1;rounded=0;exitX=0.75;exitY=1;exitDx=0;exitDy=0;entryX=0;entryY=0;entryDx=0;entryDy=0;" edge="1" parent="1" source="rJEz44dccmCfuX08f4CU-99" target="rJEz44dccmCfuX08f4CU-104">
          <mxGeometry relative="1" as="geometry">
            <mxPoint x="599" y="-326" as="sourcePoint" />
            <mxPoint x="624" y="-246" as="targetPoint" />
          </mxGeometry>
        </mxCell>
        <mxCell id="m1Zv-Pub5jHCw2q5mSXK-80" value="" style="endArrow=none;html=1;rounded=0;exitX=1;exitY=1;exitDx=0;exitDy=0;entryX=0;entryY=0.5;entryDx=0;entryDy=0;" edge="1" parent="1" source="rJEz44dccmCfuX08f4CU-99" target="rJEz44dccmCfuX08f4CU-142">
          <mxGeometry relative="1" as="geometry">
            <mxPoint x="629" y="-326" as="sourcePoint" />
            <mxPoint x="684" y="-250" as="targetPoint" />
          </mxGeometry>
        </mxCell>
        <mxCell id="m1Zv-Pub5jHCw2q5mSXK-81" value="" style="endArrow=none;html=1;rounded=0;exitX=1;exitY=0.5;exitDx=0;exitDy=0;entryX=0;entryY=0.5;entryDx=0;entryDy=0;" edge="1" parent="1" source="rJEz44dccmCfuX08f4CU-99" target="rJEz44dccmCfuX08f4CU-109">
          <mxGeometry relative="1" as="geometry">
            <mxPoint x="659" y="-326" as="sourcePoint" />
            <mxPoint x="729" y="-276" as="targetPoint" />
          </mxGeometry>
        </mxCell>
        <mxCell id="m1Zv-Pub5jHCw2q5mSXK-82" value="" style="endArrow=none;html=1;rounded=0;exitX=1;exitY=0;exitDx=0;exitDy=0;entryX=0;entryY=0.5;entryDx=0;entryDy=0;" edge="1" parent="1" source="rJEz44dccmCfuX08f4CU-99" target="rJEz44dccmCfuX08f4CU-107">
          <mxGeometry relative="1" as="geometry">
            <mxPoint x="659" y="-356" as="sourcePoint" />
            <mxPoint x="739" y="-331" as="targetPoint" />
          </mxGeometry>
        </mxCell>
      </root>
    </mxGraphModel>
  </diagram>
</mxfile>
